<svg xmlns="http://www.w3.org/2000/svg" fill="none" viewBox="0 0 520 70" height="70" width="520">
<rect fill="#F7F8FD" height="70" width="520"></rect>
<path stroke-linejoin="round" stroke-linecap="round" stroke-width="1.44444" stroke="#242F66" d="M26.8887 44.0278C34.5957 44.0215 42.2691 45.0421 49.7066 47.0626C50.7567 47.3486 51.8053 46.5686 51.8053 45.4795V44.0278M29.0553 23.4445V24.5278C29.0553 24.8151 28.9412 25.0907 28.738 25.2938C28.5349 25.497 28.2593 25.6111 27.972 25.6111H26.8887M26.8887 25.6111V25.0695C26.8887 24.1725 27.6167 23.4445 28.5137 23.4445H52.8887M26.8887 25.6111V38.6111M52.8887 23.4445V24.5278C52.8887 25.1258 53.374 25.6111 53.972 25.6111H55.0553M52.8887 23.4445H53.4303C54.3273 23.4445 55.0553 24.1725 55.0553 25.0695V39.1528C55.0553 40.0498 54.3273 40.7778 53.4303 40.7778H52.8887M26.8887 38.6111V39.1528C26.8887 39.5838 27.0599 39.9971 27.3646 40.3018C27.6694 40.6066 28.0827 40.7778 28.5137 40.7778H29.0553M26.8887 38.6111H27.972C28.2593 38.6111 28.5349 38.7253 28.738 38.9284C28.9412 39.1316 29.0553 39.4071 29.0553 39.6945V40.7778M52.8887 40.7778V39.6945C52.8887 39.4071 53.0028 39.1316 53.206 38.9284C53.4091 38.7253 53.6847 38.6111 53.972 38.6111H55.0553M52.8887 40.7778H29.0553M45.3053 32.1111C45.3053 33.2604 44.8488 34.3626 44.0361 35.1753C43.2235 35.9879 42.1213 36.4445 40.972 36.4445C39.8227 36.4445 38.7205 35.9879 37.9079 35.1753C37.0952 34.3626 36.6387 33.2604 36.6387 32.1111C36.6387 30.9619 37.0952 29.8597 37.9079 29.047C38.7205 28.2343 39.8227 27.7778 40.972 27.7778C42.1213 27.7778 43.2235 28.2343 44.0361 29.047C44.8488 29.8597 45.3053 30.9619 45.3053 32.1111ZM49.6387 32.1111H49.6502V32.1227H49.6387V32.1111ZM32.3053 32.1111H32.3169V32.1227H32.3053V32.1111Z"></path>
<path fill="#242F66" d="M75.6467 31.16C72.9747 31.16 71.2627 29.688 71.2627 26.936V23.88C71.2627 21.128 72.9907 19.64 75.5027 19.64C78.0787 19.64 79.4547 21.16 79.6147 23.368H77.7107C77.5667 22.024 76.8947 21.32 75.5507 21.32C74.0147 21.32 73.2307 22.344 73.2307 23.944V26.888C73.2307 28.456 74.0147 29.48 75.5347 29.48C76.8787 29.48 77.5987 28.84 77.7107 27.432H79.6147C79.5027 29.816 77.9667 31.16 75.6467 31.16ZM88.5408 31L87.7248 28.6H83.4528L82.6368 31H80.6048L84.6048 19.8H86.6528L90.6368 31H88.5408ZM87.1808 26.92L85.5808 22.168L83.9648 26.92H87.1808ZM95.2838 21.32C94.0678 21.32 93.6518 21.864 93.6518 22.616C93.6518 23.448 94.0518 23.736 95.2358 24.184L96.4038 24.632C98.6118 25.464 99.2518 26.296 99.2518 27.944C99.2518 30.008 98.0838 31.16 95.4918 31.16C93.0918 31.16 91.6518 30.136 91.3798 27.72H93.2838C93.4918 28.952 94.0838 29.48 95.4918 29.48C96.7718 29.48 97.2838 29.016 97.2838 28.04C97.2838 27.144 96.8998 26.792 95.5558 26.28L94.4518 25.88C92.4358 25.144 91.6678 24.376 91.6678 22.68C91.6678 20.92 92.7878 19.64 95.2838 19.64C97.7318 19.64 98.9638 20.92 99.0438 23.08H97.1398C97.0438 21.912 96.5478 21.32 95.2838 21.32ZM108.114 31V26.008H103.442V31H101.506V19.8H103.442V24.328H108.114V19.8H110.05V31H108.114ZM121.226 31.16C118.538 31.16 116.81 29.688 116.81 26.936V23.88C116.81 21.128 118.538 19.64 121.226 19.64C123.914 19.64 125.642 21.128 125.642 23.864V26.936C125.642 29.688 123.914 31.16 121.226 31.16ZM121.226 21.32C119.562 21.32 118.778 22.344 118.778 23.944V26.888C118.778 28.456 119.562 29.48 121.226 29.48C122.89 29.48 123.674 28.456 123.674 26.872V23.928C123.674 22.344 122.89 21.32 121.226 21.32ZM134.132 31L129.988 22.728V31H128.116V19.8H130.42L134.564 28.072V19.8H136.436V31H134.132ZM71.6627 50V38.8H75.3747C77.9987 38.8 79.4867 40.208 79.4867 42.752V46.064C79.4867 48.656 78.0787 50 75.4387 50H71.6627ZM75.2947 39.888H72.9107V48.912H75.3427C77.4387 48.912 78.2067 47.856 78.2067 46.08V42.736C78.2067 40.992 77.2787 39.888 75.2947 39.888ZM81.9752 50V38.8H89.0152V39.888H83.2232V43.664H88.0392V44.736H83.2232V48.912H89.0152V50H81.9752ZM90.9908 50V38.8H92.2388V48.912H97.5828V50H90.9908ZM99.1939 50V38.8H100.442V50H99.1939ZM107.351 50H105.975L102.135 38.8H103.495L106.695 48.432L109.879 38.8H111.175L107.351 50ZM112.85 50V38.8H119.89V39.888H114.098V43.664H118.914V44.736H114.098V48.912H119.89V50H112.85ZM123.114 45.504V50H121.866V38.8H124.922C127.69 38.8 128.858 39.92 128.858 41.84V42.496C128.858 43.92 128.01 44.976 126.314 45.312L129.274 50H127.866L125.066 45.504H123.114ZM124.89 39.888H123.114V44.416H124.906C126.746 44.416 127.578 43.648 127.578 42.464V41.872C127.578 40.672 126.874 39.888 124.89 39.888ZM134.97 50H133.722V45.504L129.866 38.8H131.274L134.378 44.32L137.482 38.8H138.826L134.97 45.52V50Z"></path>
<line stroke-width="1.44444" stroke="#E9EAF0" y2="16.4134" x2="170.833" y1="53.5867" x1="170.833"></line>
<path stroke-linejoin="round" stroke-linecap="round" stroke-width="1.44444" stroke="#242F66" d="M215.805 44.75C215.805 45.3246 215.577 45.8757 215.171 46.282C214.764 46.6884 214.213 46.9166 213.639 46.9166C213.064 46.9166 212.513 46.6884 212.107 46.282C211.7 45.8757 211.472 45.3246 211.472 44.75M215.805 44.75C215.805 44.1753 215.577 43.6242 215.171 43.2179C214.764 42.8116 214.213 42.5833 213.639 42.5833C213.064 42.5833 212.513 42.8116 212.107 43.2179C211.7 43.6242 211.472 44.1753 211.472 44.75M215.805 44.75H224.472M211.472 44.75H208.764C208.333 44.75 207.919 44.5788 207.615 44.274C207.31 43.9693 207.139 43.5559 207.139 43.125V38.25M224.472 44.75H227.722M224.472 44.75V38.25M207.139 38.25V27.2216C207.136 26.8261 207.281 26.4438 207.544 26.1487C207.808 25.8535 208.171 25.6666 208.564 25.6241C213.379 25.1243 218.232 25.1243 223.046 25.6241C223.862 25.7078 224.472 26.4012 224.472 27.2216V28.6054M207.139 38.25H224.472M232.055 44.75C232.055 45.3246 231.827 45.8757 231.421 46.282C231.014 46.6884 230.463 46.9166 229.889 46.9166C229.314 46.9166 228.763 46.6884 228.357 46.282C227.95 45.8757 227.722 45.3246 227.722 44.75M232.055 44.75C232.055 44.1753 231.827 43.6242 231.421 43.2179C231.014 42.8116 230.463 42.5833 229.889 42.5833C229.314 42.5833 228.763 42.8116 228.357 43.2179C227.95 43.6242 227.722 44.1753 227.722 44.75M232.055 44.75H233.68C234.577 44.75 235.311 44.022 235.255 43.1264C234.965 38.3563 233.358 33.76 230.614 29.8476C230.352 29.4811 230.011 29.1789 229.616 28.9637C229.22 28.7485 228.781 28.626 228.332 28.6054H224.472M224.472 28.6054V38.25"></path>
<path fill="#242F66" d="M257.631 26.344H253.487V31H251.551V19.8H258.511V21.48H253.487V24.664H257.631V26.344ZM262.159 26.824V31H260.223V19.8H263.759C266.399 19.8 267.791 20.968 267.791 23.032V23.624C267.791 25.048 267.007 26.056 265.599 26.504L268.239 31H266.047L263.727 26.824H262.159ZM263.647 21.48H262.159V25.144H263.647C265.119 25.144 265.807 24.52 265.807 23.544V23.096C265.807 22.12 265.183 21.48 263.647 21.48ZM270.067 31V19.8H277.331V21.48H272.003V24.376H276.451V26.056H272.003V29.32H277.331V31H270.067ZM279.489 31V19.8H286.753V21.48H281.425V24.376H285.873V26.056H281.425V29.32H286.753V31H279.489ZM254.543 39.728C252.911 39.728 252.383 40.48 252.383 41.472C252.383 42.544 252.847 42.912 254.351 43.456L255.535 43.888C257.679 44.688 258.319 45.52 258.319 47.088C258.319 49.04 257.215 50.16 254.735 50.16C252.351 50.16 251.055 49.088 250.815 46.768H252.015C252.223 48.32 253.039 49.072 254.751 49.072C256.367 49.072 257.039 48.448 257.039 47.136C257.039 46.08 256.607 45.568 255.023 44.976L253.839 44.544C251.839 43.824 251.103 43.136 251.103 41.488C251.103 39.872 252.127 38.64 254.543 38.64C256.879 38.64 258.063 39.84 258.111 42.032H256.911C256.815 40.48 256.159 39.728 254.543 39.728ZM267.463 50V44.752H261.831V50H260.583V38.8H261.831V43.664H267.463V38.8H268.711V50H267.463ZM271.598 50V38.8H272.846V50H271.598ZM278.811 45.504H276.971V50H275.723V38.8H278.779C281.547 38.8 282.715 39.92 282.715 41.84V42.496C282.715 44.32 281.339 45.504 278.811 45.504ZM278.747 39.888H276.971V44.416H278.763C280.603 44.416 281.435 43.648 281.435 42.464V41.872C281.435 40.672 280.731 39.888 278.747 39.888ZM287.78 45.504H285.94V50H284.692V38.8H287.748C290.516 38.8 291.684 39.92 291.684 41.84V42.496C291.684 44.32 290.308 45.504 287.78 45.504ZM287.716 39.888H285.94V44.416H287.732C289.572 44.416 290.404 43.648 290.404 42.464V41.872C290.404 40.672 289.7 39.888 287.716 39.888ZM293.661 50V38.8H294.909V50H293.661ZM304.234 50L299.002 40.704V50H297.786V38.8H299.274L304.49 48.112V38.8H305.722V50H304.234ZM312.374 50.16C309.846 50.16 308.23 48.768 308.23 46.064V42.752C308.23 40.048 309.862 38.64 312.422 38.64C314.758 38.64 316.038 39.856 316.23 41.872H315.014C314.806 40.416 313.99 39.728 312.358 39.728C310.438 39.728 309.51 40.912 309.51 42.752V46.08C309.51 47.888 310.438 49.072 312.422 49.072C314.342 49.072 315.046 47.984 315.046 46.32V45.472H312.262V44.4H316.23V46.128C316.23 48.896 314.998 50.16 312.374 50.16Z"></path>
<line stroke-width="1.44444" stroke="#E9EAF0" y2="16.4134" x2="349.722" y1="53.5867" x1="349.722"></line>
<path stroke-linejoin="round" stroke-linecap="round" stroke-width="1.44444" stroke="#242F66" d="M394.694 31.75H401.736C402.741 31.75 403.706 32.1494 404.417 32.8605C405.128 33.5716 405.527 34.536 405.527 35.5416C405.527 36.5472 405.128 37.5117 404.417 38.2227C403.706 38.9338 402.741 39.3333 401.736 39.3333H400.111M394.694 31.75L397.944 28.5M394.694 31.75L397.944 35M410.944 24.5379V49.0833L405.527 46.9166L400.111 49.0833L394.694 46.9166L389.277 49.0833V24.5379C389.277 22.9374 390.442 21.5666 392.032 21.3817C397.4 20.7587 402.822 20.7587 408.189 21.3817C409.778 21.5666 410.944 22.9374 410.944 24.5379Z"></path>
<path fill="#242F66" d="M430.44 31V19.8H437.704V21.48H432.376V24.376H436.824V26.056H432.376V29.32H437.704V31H430.44ZM446.662 31L445.846 28.6H441.574L440.758 31H438.726L442.726 19.8H444.774L448.758 31H446.662ZM445.302 26.92L443.702 22.168L442.086 26.92H445.302ZM453.405 21.32C452.189 21.32 451.773 21.864 451.773 22.616C451.773 23.448 452.173 23.736 453.357 24.184L454.525 24.632C456.733 25.464 457.373 26.296 457.373 27.944C457.373 30.008 456.205 31.16 453.613 31.16C451.213 31.16 449.773 30.136 449.501 27.72H451.405C451.613 28.952 452.205 29.48 453.613 29.48C454.893 29.48 455.405 29.016 455.405 28.04C455.405 27.144 455.021 26.792 453.677 26.28L452.573 25.88C450.557 25.144 449.789 24.376 449.789 22.68C449.789 20.92 450.909 19.64 453.405 19.64C455.853 19.64 457.085 20.92 457.165 23.08H455.261C455.165 21.912 454.669 21.32 453.405 21.32ZM463.606 31H461.67V26.664L457.846 19.8H460.022L462.694 24.856L465.35 19.8H467.43L463.606 26.696V31ZM431.688 45.504V50H430.44V38.8H433.496C436.264 38.8 437.432 39.92 437.432 41.84V42.496C437.432 43.92 436.584 44.976 434.888 45.312L437.848 50H436.44L433.64 45.504H431.688ZM433.464 39.888H431.688V44.416H433.48C435.32 44.416 436.152 43.648 436.152 42.464V41.872C436.152 40.672 435.448 39.888 433.464 39.888ZM439.753 50V38.8H446.793V39.888H441.001V43.664H445.817V44.736H441.001V48.912H446.793V50H439.753ZM455.472 39.888H452.144V50H450.896V39.888H447.536V38.8H455.472V39.888ZM463.432 38.8H464.712V46.304C464.712 48.8 463.192 50.16 460.824 50.16C458.472 50.16 456.952 48.8 456.952 46.304V38.8H458.232V46.304C458.232 47.952 459.08 49.072 460.824 49.072C462.6 49.072 463.432 47.952 463.432 46.304V38.8ZM468.657 45.504V50H467.409V38.8H470.465C473.233 38.8 474.401 39.92 474.401 41.84V42.496C474.401 43.92 473.553 44.976 471.857 45.312L474.817 50H473.409L470.609 45.504H468.657ZM470.433 39.888H468.657V44.416H470.449C472.289 44.416 473.121 43.648 473.121 42.464V41.872C473.121 40.672 472.417 39.888 470.433 39.888ZM483.169 50L477.937 40.704V50H476.721V38.8H478.209L483.425 48.112V38.8H484.657V50H483.169ZM490.526 39.728C488.894 39.728 488.366 40.48 488.366 41.472C488.366 42.544 488.83 42.912 490.334 43.456L491.518 43.888C493.662 44.688 494.302 45.52 494.302 47.088C494.302 49.04 493.198 50.16 490.718 50.16C488.334 50.16 487.038 49.088 486.798 46.768H487.998C488.206 48.32 489.022 49.072 490.734 49.072C492.35 49.072 493.022 48.448 493.022 47.136C493.022 46.08 492.59 45.568 491.006 44.976L489.822 44.544C487.822 43.824 487.086 43.136 487.086 41.488C487.086 39.872 488.11 38.64 490.526 38.64C492.862 38.64 494.046 39.84 494.094 42.032H492.894C492.798 40.48 492.142 39.728 490.526 39.728Z"></path>
</svg>
